<?xml version="1.0" encoding="UTF-8"?>
<svg xmlns="http://www.w3.org/2000/svg" xmlns:xlink="http://www.w3.org/1999/xlink" width="409.600006pt" height="409.600006pt" viewBox="0 0 409.600006 409.600006" version="1.1">
<g id="surface1">
<path style=" stroke:none;fill-rule:nonzero;fill:rgb(52%,52%,52%);fill-opacity:1;" d="M 27.4375 307.199219 L 204.796875 409.601562 L 382.160156 307.199219 L 382.160156 102.398438 L 204.796875 0.0078125 L 27.4375 102.40625 Z M 27.4375 307.199219 "/>
<path style=" stroke:none;fill-rule:nonzero;fill:rgb(70%,70%,70%);fill-opacity:1;" d="M 186.492188 24.671875 L 57.898438 98.917969 C 58.15625 101.199219 58.15625 103.503906 57.898438 105.789062 L 186.5 180.03125 C 197.339844 172.03125 212.132812 172.03125 222.976562 180.03125 L 351.574219 105.789062 C 351.320312 103.503906 351.316406 101.199219 351.574219 98.917969 L 222.984375 24.671875 C 212.140625 32.671875 197.347656 32.671875 186.503906 24.671875 Z M 363.921875 126.296875 L 235.1875 201.367188 C 236.695312 214.757812 229.296875 227.570312 216.945312 232.960938 L 217.089844 380.625 C 219.199219 381.542969 221.191406 382.695312 223.042969 384.058594 L 351.640625 309.8125 C 350.136719 296.421875 357.53125 283.613281 369.882812 278.222656 L 369.882812 129.734375 C 367.773438 128.816406 365.777344 127.664062 363.929688 126.300781 Z M 45.675781 127.121094 C 43.824219 128.484375 41.832031 129.636719 39.722656 130.558594 L 39.722656 279.046875 C 52.074219 284.4375 59.46875 297.246094 57.964844 310.636719 L 186.554688 384.882812 C 188.402344 383.515625 190.402344 382.363281 192.507812 381.445312 L 192.507812 232.957031 C 180.15625 227.566406 172.761719 214.757812 174.265625 201.367188 L 45.675781 127.117188 Z M 45.675781 127.121094 "/>
<path style=" stroke:none;fill-rule:nonzero;fill:rgb(0%,0%,0%);fill-opacity:0.25098;" d="M 204.800781 409.601562 L 382.160156 307.199219 L 382.160156 102.398438 L 204.800781 204.800781 Z M 204.800781 409.601562 "/>
<path style=" stroke:none;fill-rule:nonzero;fill:rgb(0%,0%,0%);fill-opacity:0.039216;" d="M 204.800781 409.601562 L 204.800781 204.800781 L 27.441406 102.398438 L 27.441406 307.199219 Z M 204.800781 409.601562 "/>
<path style=" stroke:none;fill-rule:nonzero;fill:rgb(0%,0%,0%);fill-opacity:0.13018;" d="M 27.4375 102.398438 L 204.796875 204.800781 L 382.160156 102.398438 L 204.796875 0 Z M 27.4375 102.398438 "/>
</g>
</svg>
